<svg xmlns="http://www.w3.org/2000/svg" xmlns:xlink="http://www.w3.org/1999/xlink" width="250" zoomAndPan="magnify" viewBox="0 0 187.5 135.749996" height="181" preserveAspectRatio="xMidYMid meet" version="1.0"><defs><clipPath id="23709d788a"><path d="M 0 0.199219 L 187 0.199219 L 187 135.445312 L 0 135.445312 Z M 0 0.199219 " clip-rule="nonzero"/></clipPath><clipPath id="589e3defbf"><path d="M 0 0.199219 L 94 0.199219 L 94 74 L 0 74 Z M 0 0.199219 " clip-rule="nonzero"/></clipPath></defs><g clip-path="url(#23709d788a)"><path fill="#b22334" d="M 184.117188 10.636719 C 180.519531 4.433594 173.894531 0.222656 166.222656 0.222656 L 93.5 0.222656 L 93.5 10.636719 Z M 0 104.332031 L 187 104.332031 L 187 114.742188 L 0 114.742188 Z M 93.5 62.6875 L 187 62.6875 L 187 73.101562 L 93.5 73.101562 Z M 93.5 41.867188 L 187 41.867188 L 187 52.277344 L 93.5 52.277344 Z M 0 83.511719 L 187 83.511719 L 187 93.921875 L 0 93.921875 Z M 20.777344 135.5625 L 166.222656 135.5625 C 173.894531 135.5625 180.519531 131.351562 184.117188 125.152344 L 2.882812 125.152344 C 6.484375 131.351562 13.105469 135.5625 20.777344 135.5625 Z M 93.5 21.046875 L 187 21.046875 L 187 31.457031 L 93.5 31.457031 Z M 93.5 21.046875 " fill-opacity="1" fill-rule="nonzero"/></g><path fill="#eeeeee" d="M 0.351562 118.277344 C 0.441406 118.761719 0.539062 119.246094 0.660156 119.71875 C 0.792969 120.246094 0.960938 120.75 1.136719 121.261719 C 1.601562 122.609375 2.160156 123.910156 2.867188 125.128906 L 2.882812 125.152344 L 184.117188 125.152344 L 184.128906 125.132812 C 184.828125 123.917969 185.390625 122.617188 185.851562 121.277344 C 186.03125 120.761719 186.203125 120.246094 186.335938 119.707031 C 186.457031 119.238281 186.554688 118.761719 186.644531 118.277344 C 186.855469 117.132812 187 115.957031 187 114.742188 L 0 114.742188 C 0 115.957031 0.144531 117.125 0.351562 118.277344 Z M 0 93.921875 L 187 93.921875 L 187 104.332031 L 0 104.332031 Z M 0 73.101562 L 0 83.511719 L 187 83.511719 L 187 73.101562 Z M 93.5 52.277344 L 187 52.277344 L 187 62.6875 L 93.5 62.6875 Z M 93.5 31.457031 L 187 31.457031 L 187 41.867188 L 93.5 41.867188 Z M 0 21.046875 C 0 19.832031 0.15625 18.667969 0.351562 17.511719 C 0.144531 18.660156 0 19.832031 0 21.046875 Z M 2.882812 10.636719 L 2.867188 10.660156 Z M 0.664062 16.070312 C 0.792969 15.539062 0.976562 15.035156 1.144531 14.523438 C 0.964844 15.035156 0.800781 15.542969 0.664062 16.070312 Z M 93.5 21.046875 L 187 21.046875 C 187 19.832031 186.855469 18.65625 186.644531 17.507812 C 186.554688 17.027344 186.460938 16.546875 186.335938 16.078125 C 186.195312 15.542969 186.03125 15.023438 185.847656 14.507812 C 185.386719 13.164062 184.824219 11.867188 184.125 10.65625 C 184.128906 10.652344 184.125 10.640625 184.117188 10.636719 L 93.5 10.636719 Z M 93.5 21.046875 " fill-opacity="1" fill-rule="nonzero"/><g clip-path="url(#589e3defbf)"><path fill="#3c3b6e" d="M 93.5 0.222656 L 20.777344 0.222656 C 9.304688 0.222656 0 9.546875 0 21.046875 L 0 73.101562 L 93.5 73.101562 Z M 93.5 0.222656 " fill-opacity="1" fill-rule="nonzero"/></g><path fill="#ffffff" d="M 10.394531 14.414062 L 13.605469 16.75 L 12.378906 20.523438 L 15.582031 18.191406 L 18.792969 20.523438 L 17.566406 16.75 L 20.777344 14.414062 L 16.808594 14.414062 L 15.582031 10.636719 L 14.363281 14.414062 Z M 20.78125 24.824219 L 23.992188 27.160156 L 22.765625 30.9375 L 25.972656 28.605469 L 29.183594 30.9375 L 27.957031 27.160156 L 31.167969 24.824219 L 27.199219 24.824219 L 25.972656 21.046875 L 24.75 24.824219 Z M 41.5625 24.824219 L 44.769531 27.160156 L 43.546875 30.9375 L 46.75 28.605469 L 49.960938 30.9375 L 48.734375 27.160156 L 51.945312 24.824219 L 47.976562 24.824219 L 46.75 21.046875 L 45.53125 24.824219 Z M 62.339844 24.824219 L 65.550781 27.160156 L 64.324219 30.9375 L 67.527344 28.605469 L 70.738281 30.9375 L 69.511719 27.160156 L 72.722656 24.824219 L 68.753906 24.824219 L 67.527344 21.046875 L 66.308594 24.824219 Z M 20.78125 45.644531 L 23.992188 47.984375 L 22.765625 51.757812 L 25.972656 49.425781 L 29.183594 51.757812 L 27.957031 47.984375 L 31.167969 45.644531 L 27.199219 45.644531 L 25.972656 41.867188 L 24.75 45.644531 Z M 41.5625 45.644531 L 44.769531 47.984375 L 43.546875 51.757812 L 46.75 49.425781 L 49.960938 51.757812 L 48.734375 47.984375 L 51.945312 45.644531 L 47.976562 45.644531 L 46.75 41.867188 L 45.53125 45.644531 Z M 62.339844 45.644531 L 65.550781 47.984375 L 64.324219 51.757812 L 67.527344 49.425781 L 70.738281 51.757812 L 69.511719 47.984375 L 72.722656 45.644531 L 68.753906 45.644531 L 67.527344 41.867188 L 66.308594 45.644531 Z M 31.171875 14.414062 L 34.382812 16.75 L 33.15625 20.523438 L 36.363281 18.191406 L 39.570312 20.523438 L 38.34375 16.75 L 41.554688 14.414062 L 37.585938 14.414062 L 36.363281 10.636719 L 35.140625 14.414062 Z M 51.949219 14.414062 L 55.160156 16.75 L 53.933594 20.523438 L 57.140625 18.191406 L 60.347656 20.523438 L 59.125 16.75 L 62.332031 14.414062 L 58.363281 14.414062 L 57.140625 10.636719 L 55.917969 14.414062 Z M 72.726562 14.414062 L 75.9375 16.75 L 74.710938 20.523438 L 77.917969 18.191406 L 81.128906 20.523438 L 79.902344 16.75 L 83.113281 14.414062 L 79.144531 14.414062 L 77.917969 10.636719 L 76.695312 14.414062 Z M 10.394531 35.234375 L 13.605469 37.574219 L 12.378906 41.347656 L 15.582031 39.015625 L 18.792969 41.347656 L 17.566406 37.574219 L 20.777344 35.234375 L 16.808594 35.234375 L 15.582031 31.457031 L 14.363281 35.234375 Z M 33.15625 41.347656 L 36.363281 39.015625 L 39.570312 41.347656 L 38.34375 37.574219 L 41.554688 35.234375 L 37.585938 35.234375 L 36.363281 31.457031 L 35.140625 35.234375 L 31.171875 35.234375 L 34.382812 37.574219 Z M 51.949219 35.234375 L 55.160156 37.574219 L 53.933594 41.347656 L 57.140625 39.015625 L 60.347656 41.347656 L 59.125 37.574219 L 62.332031 35.234375 L 58.363281 35.234375 L 57.140625 31.457031 L 55.917969 35.234375 Z M 72.726562 35.234375 L 75.9375 37.574219 L 74.710938 41.347656 L 77.917969 39.015625 L 81.128906 41.347656 L 79.902344 37.574219 L 83.113281 35.234375 L 79.144531 35.234375 L 77.917969 31.457031 L 76.695312 35.234375 Z M 10.394531 56.058594 L 13.605469 58.394531 L 12.378906 62.167969 L 15.582031 59.835938 L 18.792969 62.167969 L 17.566406 58.394531 L 20.777344 56.058594 L 16.808594 56.058594 L 15.582031 52.277344 L 14.363281 56.058594 Z M 33.15625 62.167969 L 36.363281 59.835938 L 39.570312 62.167969 L 38.34375 58.394531 L 41.554688 56.058594 L 37.585938 56.058594 L 36.363281 52.277344 L 35.140625 56.058594 L 31.171875 56.058594 L 34.382812 58.394531 Z M 51.949219 56.058594 L 55.160156 58.394531 L 53.933594 62.167969 L 57.140625 59.835938 L 60.347656 62.167969 L 59.125 58.394531 L 62.332031 56.058594 L 58.363281 56.058594 L 57.140625 52.277344 L 55.917969 56.058594 Z M 72.726562 56.058594 L 75.9375 58.394531 L 74.710938 62.167969 L 77.917969 59.835938 L 81.128906 62.167969 L 79.902344 58.394531 L 83.113281 56.058594 L 79.144531 56.058594 L 77.917969 52.277344 L 76.695312 56.058594 Z M 72.726562 56.058594 " fill-opacity="1" fill-rule="nonzero"/></svg>