<svg xmlns="http://www.w3.org/2000/svg" xmlns:xlink="http://www.w3.org/1999/xlink" width="250" zoomAndPan="magnify" viewBox="0 0 187.5 135.749996" height="181" preserveAspectRatio="xMidYMid meet" version="1.0"><defs><clipPath id="4565f4e554"><path d="M 0 0.0664062 L 58 0.0664062 L 58 135.445312 L 0 135.445312 Z M 0 0.0664062 " clip-rule="nonzero"/></clipPath><clipPath id="0d4135ea76"><path d="M 129 0.0664062 L 187 0.0664062 L 187 135.445312 L 129 135.445312 Z M 129 0.0664062 " clip-rule="nonzero"/></clipPath><clipPath id="1a7fd7f360"><path d="M 57 0.0664062 L 130 0.0664062 L 130 135.445312 L 57 135.445312 Z M 57 0.0664062 " clip-rule="nonzero"/></clipPath></defs><g clip-path="url(#4565f4e554)"><path fill="#006847" d="M 20.777344 0.09375 C 9.304688 0.09375 0 9.417969 0 20.914062 L 0 114.609375 C 0 126.109375 9.304688 135.429688 20.777344 135.429688 L 57.140625 135.429688 L 57.140625 0.09375 Z M 20.777344 0.09375 " fill-opacity="1" fill-rule="nonzero"/></g><g clip-path="url(#0d4135ea76)"><path fill="#ce1126" d="M 166.222656 0.09375 L 129.863281 0.09375 L 129.863281 135.429688 L 166.222656 135.429688 C 177.699219 135.429688 187 126.109375 187 114.609375 L 187 20.914062 C 187 9.417969 177.699219 0.09375 166.222656 0.09375 Z M 166.222656 0.09375 " fill-opacity="1" fill-rule="nonzero"/></g><g clip-path="url(#1a7fd7f360)"><path fill="#eeeeee" d="M 57.140625 0.09375 L 129.863281 0.09375 L 129.863281 135.429688 L 57.140625 135.429688 Z M 57.140625 0.09375 " fill-opacity="1" fill-rule="nonzero"/></g><path fill="#a6d388" d="M 119.472656 67.761719 C 119.472656 82.140625 107.847656 93.789062 93.5 93.789062 C 79.160156 93.789062 67.527344 82.140625 67.527344 67.761719 L 62.332031 67.761719 C 62.332031 85.007812 76.285156 98.992188 93.5 98.992188 C 110.714844 98.992188 124.667969 85.007812 124.667969 67.761719 Z M 119.472656 67.761719 " fill-opacity="1" fill-rule="nonzero"/><path fill="#5c913b" d="M 70.347656 79.574219 C 69.871094 78.636719 68.90625 78.117188 67.917969 78.164062 C 67.558594 78.171875 67.191406 78.265625 66.851562 78.4375 C 65.570312 79.089844 65.066406 80.660156 65.714844 81.941406 C 66.183594 82.863281 66.695312 83.761719 67.253906 84.628906 L 67.253906 84.632812 L 67.273438 84.664062 L 67.273438 84.667969 L 67.316406 84.726562 L 67.316406 84.730469 L 67.332031 84.761719 L 67.335938 84.773438 L 67.355469 84.800781 L 67.355469 84.804688 L 67.371094 84.832031 L 67.371094 84.839844 L 67.386719 84.867188 L 67.410156 84.902344 L 67.414062 84.914062 L 67.429688 84.933594 L 67.441406 84.949219 L 67.457031 84.980469 L 67.472656 85.007812 L 67.476562 85.011719 L 67.488281 85.027344 L 67.503906 85.058594 L 67.507812 85.070312 L 67.523438 85.097656 L 67.527344 85.105469 L 67.566406 85.160156 L 67.566406 85.164062 L 67.589844 85.199219 L 67.589844 85.207031 C 67.859375 85.605469 68.136719 85.992188 68.425781 86.382812 C 68.957031 87.101562 69.789062 87.453125 70.613281 87.421875 C 71.113281 87.402344 71.617188 87.234375 72.046875 86.90625 C 73.199219 86.054688 73.441406 84.417969 72.582031 83.269531 C 71.761719 82.09375 71 80.851562 70.347656 79.574219 Z M 67.765625 71.339844 C 67.65625 70.527344 67.582031 69.699219 67.542969 68.855469 C 67.519531 68.230469 67.519531 67.617188 67.527344 67.003906 C 67.570312 65.570312 66.441406 64.367188 65.007812 64.328125 L 64.820312 64.332031 C 63.472656 64.390625 62.375 65.480469 62.339844 66.855469 C 62.328125 67.398438 62.324219 67.933594 62.332031 68.476562 L 62.332031 68.945312 L 62.339844 68.96875 L 62.339844 69.117188 L 62.34375 69.132812 L 62.339844 69.140625 L 62.339844 69.15625 L 62.34375 69.167969 L 62.34375 69.320312 L 62.347656 69.335938 L 62.347656 69.390625 L 62.355469 69.492188 L 62.359375 69.539062 L 62.359375 69.59375 C 62.40625 70.425781 62.488281 71.253906 62.597656 72.078125 C 62.785156 73.414062 63.953125 74.367188 65.273438 74.316406 C 65.355469 74.308594 65.441406 74.304688 65.519531 74.289062 C 66.976562 74.082031 67.964844 72.765625 67.765625 71.339844 Z M 95.265625 93.722656 L 95.234375 93.726562 L 94.589844 93.769531 C 93.359375 93.816406 92.113281 93.785156 90.902344 93.660156 C 90.777344 93.644531 90.660156 93.644531 90.535156 93.648438 C 89.261719 93.699219 88.191406 94.6875 88.0625 95.992188 C 87.921875 97.417969 88.960938 98.691406 90.382812 98.835938 L 91.035156 98.894531 L 91.054688 98.898438 L 91.066406 98.894531 L 91.078125 98.898438 L 91.089844 98.898438 L 91.121094 98.90625 L 91.152344 98.90625 L 91.167969 98.910156 L 91.171875 98.910156 L 91.203125 98.90625 L 91.21875 98.910156 L 91.246094 98.910156 L 91.277344 98.914062 L 91.304688 98.921875 L 91.371094 98.921875 L 91.402344 98.925781 L 91.46875 98.925781 C 92.257812 98.976562 93.054688 99.003906 93.855469 98.988281 L 94.054688 98.988281 L 94.09375 98.984375 L 94.125 98.988281 L 94.203125 98.988281 L 94.226562 98.984375 L 94.328125 98.984375 L 94.359375 98.976562 L 94.363281 98.976562 L 94.390625 98.984375 L 94.394531 98.976562 L 94.425781 98.984375 L 94.429688 98.984375 L 94.457031 98.976562 L 94.496094 98.976562 L 94.527344 98.972656 L 94.558594 98.972656 L 94.566406 98.976562 L 94.597656 98.972656 L 94.632812 98.972656 L 94.660156 98.96875 L 94.761719 98.96875 L 94.789062 98.960938 L 94.808594 98.960938 L 94.832031 98.957031 L 94.851562 98.960938 L 94.878906 98.960938 L 94.898438 98.957031 L 94.925781 98.957031 C 95.140625 98.953125 95.367188 98.929688 95.582031 98.921875 C 96.980469 98.804688 98.03125 97.59375 97.9375 96.183594 C 97.898438 94.765625 96.679688 93.667969 95.265625 93.722656 Z M 82.597656 91.390625 C 81.292969 90.785156 80.027344 90.0625 78.835938 89.25 C 78.359375 88.917969 77.804688 88.777344 77.261719 88.796875 C 76.472656 88.828125 75.703125 89.214844 75.222656 89.925781 C 74.417969 91.109375 74.710938 92.730469 75.898438 93.539062 L 75.902344 93.542969 L 75.933594 93.558594 L 75.964844 93.589844 L 76.027344 93.636719 C 77.40625 94.578125 78.871094 95.40625 80.398438 96.117188 C 80.785156 96.296875 81.195312 96.371094 81.59375 96.355469 C 82.539062 96.3125 83.421875 95.765625 83.84375 94.851562 C 84.460938 93.542969 83.894531 91.992188 82.597656 91.390625 Z M 108.726562 89.316406 C 108.285156 89.339844 107.835938 89.472656 107.4375 89.734375 C 106.226562 90.503906 104.9375 91.1875 103.625 91.75 C 102.300781 92.300781 101.675781 93.824219 102.238281 95.15625 C 102.675781 96.183594 103.6875 96.78125 104.730469 96.746094 C 105.039062 96.734375 105.332031 96.660156 105.628906 96.546875 L 106.324219 96.234375 L 106.335938 96.234375 L 106.367188 96.214844 L 106.378906 96.210938 L 106.398438 96.199219 L 106.417969 96.199219 L 106.441406 96.1875 L 106.449219 96.179688 L 106.480469 96.171875 L 106.492188 96.164062 L 106.507812 96.152344 L 106.535156 96.140625 L 106.550781 96.136719 L 106.574219 96.125 L 106.585938 96.121094 L 106.613281 96.109375 L 106.621094 96.105469 C 106.636719 96.09375 106.636719 96.089844 106.648438 96.089844 L 106.660156 96.085938 L 106.691406 96.070312 L 106.699219 96.070312 L 106.761719 96.039062 L 106.796875 96.015625 L 106.808594 96.011719 L 106.839844 95.996094 L 106.84375 95.992188 L 106.882812 95.984375 L 106.917969 95.964844 L 106.929688 95.960938 L 106.949219 95.945312 L 106.960938 95.945312 L 106.992188 95.921875 L 107.03125 95.914062 L 107.0625 95.890625 L 107.070312 95.890625 L 107.105469 95.871094 L 107.109375 95.867188 L 107.183594 95.835938 L 107.21875 95.820312 L 107.292969 95.777344 L 107.332031 95.761719 L 107.363281 95.746094 L 107.371094 95.746094 L 107.441406 95.703125 L 107.441406 95.699219 L 107.472656 95.6875 L 107.480469 95.6875 L 107.59375 95.625 L 107.628906 95.617188 L 107.703125 95.574219 L 107.738281 95.554688 L 107.742188 95.554688 C 107.75 95.546875 107.757812 95.542969 107.78125 95.542969 C 107.789062 95.527344 107.800781 95.523438 107.8125 95.515625 L 107.882812 95.480469 L 107.882812 95.476562 L 107.957031 95.445312 L 107.960938 95.445312 L 108 95.421875 L 108.003906 95.417969 L 108.03125 95.402344 L 108.035156 95.402344 L 108.070312 95.382812 L 108.101562 95.367188 L 108.113281 95.367188 L 108.144531 95.34375 L 108.144531 95.339844 L 108.179688 95.324219 L 108.183594 95.320312 L 108.214844 95.304688 L 108.214844 95.296875 L 108.246094 95.289062 L 108.257812 95.28125 L 108.277344 95.265625 L 108.292969 95.261719 L 108.320312 95.246094 L 108.332031 95.242188 L 108.367188 95.21875 L 108.398438 95.210938 C 108.394531 95.203125 108.398438 95.203125 108.402344 95.203125 L 108.433594 95.1875 L 108.445312 95.183594 L 108.464844 95.167969 L 108.476562 95.164062 L 108.507812 95.148438 L 108.519531 95.140625 C 108.519531 95.132812 108.527344 95.132812 108.539062 95.125 L 108.554688 95.121094 L 108.574219 95.109375 L 108.613281 95.089844 L 108.628906 95.078125 L 108.644531 95.070312 L 108.660156 95.054688 L 108.683594 95.046875 L 108.703125 95.042969 L 108.714844 95.03125 L 108.734375 95.023438 L 108.757812 95.007812 L 108.765625 95 L 108.789062 94.992188 L 108.808594 94.976562 L 108.824219 94.964844 C 108.835938 94.96875 108.839844 94.964844 108.851562 94.960938 L 108.859375 94.949219 L 108.898438 94.929688 L 108.914062 94.917969 L 108.933594 94.90625 L 108.953125 94.890625 L 108.964844 94.886719 C 108.976562 94.882812 108.996094 94.882812 109.007812 94.871094 C 108.996094 94.867188 108.996094 94.867188 109.007812 94.867188 L 109.027344 94.855469 L 109.0625 94.828125 L 109.074219 94.824219 L 109.109375 94.808594 L 109.109375 94.804688 L 109.171875 94.773438 L 109.214844 94.746094 C 109.246094 94.726562 109.277344 94.703125 109.316406 94.6875 L 109.324219 94.6875 C 109.648438 94.492188 109.988281 94.289062 110.308594 94.078125 C 111.515625 93.300781 111.875 91.703125 111.101562 90.488281 C 110.503906 89.710938 109.621094 89.28125 108.726562 89.316406 Z M 122.082031 65.28125 L 121.957031 65.285156 C 120.574219 65.34375 119.472656 66.476562 119.46875 67.875 C 119.46875 69.320312 119.339844 70.777344 119.09375 72.191406 C 118.851562 73.601562 119.804688 74.957031 121.214844 75.195312 C 121.398438 75.226562 121.582031 75.242188 121.765625 75.238281 C 122.957031 75.183594 124.007812 74.304688 124.222656 73.066406 L 124.222656 73.039062 L 124.226562 73.03125 L 124.230469 73.019531 L 124.226562 73.007812 L 124.230469 73 L 124.230469 72.988281 L 124.238281 72.976562 L 124.238281 72.960938 L 124.242188 72.953125 L 124.242188 72.90625 C 124.253906 72.898438 124.253906 72.890625 124.253906 72.882812 L 124.253906 72.851562 C 124.359375 72.179688 124.453125 71.503906 124.523438 70.816406 L 124.515625 70.8125 L 124.523438 70.796875 L 124.523438 70.792969 L 124.527344 70.769531 L 124.527344 70.714844 L 124.539062 70.699219 L 124.539062 70.691406 L 124.53125 70.675781 L 124.53125 70.667969 L 124.539062 70.652344 L 124.539062 70.628906 L 124.546875 70.625 L 124.539062 70.609375 L 124.539062 70.589844 C 124.546875 70.582031 124.546875 70.578125 124.546875 70.574219 L 124.546875 70.472656 L 124.558594 70.457031 L 124.558594 70.453125 C 124.625 69.605469 124.667969 68.746094 124.667969 67.875 C 124.667969 66.457031 123.515625 65.285156 122.082031 65.28125 Z M 119.78125 79.3125 C 119.34375 79.074219 118.871094 78.96875 118.414062 78.988281 C 117.535156 79.027344 116.703125 79.511719 116.246094 80.332031 C 115.550781 81.59375 114.746094 82.8125 113.84375 83.933594 C 112.949219 85.066406 113.140625 86.699219 114.257812 87.589844 C 114.777344 88 115.386719 88.175781 115.988281 88.152344 C 116.714844 88.121094 117.421875 87.785156 117.910156 87.171875 C 118.511719 86.414062 119.089844 85.617188 119.625 84.804688 C 119.632812 84.769531 119.660156 84.730469 119.679688 84.699219 L 119.6875 84.695312 L 119.707031 84.664062 L 119.707031 84.660156 L 119.726562 84.621094 C 119.738281 84.613281 119.75 84.601562 119.75 84.589844 L 119.753906 84.597656 L 119.773438 84.566406 L 119.773438 84.558594 C 119.785156 84.550781 119.789062 84.535156 119.789062 84.523438 L 119.800781 84.519531 L 119.820312 84.488281 L 119.820312 84.480469 C 119.832031 84.476562 119.832031 84.464844 119.835938 84.457031 L 119.84375 84.449219 L 119.863281 84.417969 L 119.867188 84.410156 L 119.878906 84.382812 L 119.894531 84.371094 L 119.902344 84.347656 L 119.914062 84.347656 L 119.925781 84.316406 L 119.929688 84.304688 L 119.949219 84.285156 L 119.957031 84.273438 C 119.960938 84.261719 119.960938 84.253906 119.972656 84.246094 L 119.976562 84.230469 L 119.996094 84.214844 C 119.996094 84.210938 119.996094 84.207031 120.007812 84.199219 L 120.007812 84.179688 L 120.023438 84.167969 L 120.039062 84.144531 L 120.042969 84.132812 L 120.058594 84.101562 L 120.070312 84.089844 L 120.082031 84.070312 L 120.089844 84.054688 C 120.089844 84.050781 120.089844 84.042969 120.101562 84.039062 C 120.101562 84.035156 120.101562 84.027344 120.113281 84.023438 L 120.128906 83.996094 L 120.132812 83.980469 L 120.144531 83.964844 L 120.152344 83.949219 C 120.164062 83.945312 120.164062 83.941406 120.164062 83.933594 C 120.175781 83.929688 120.175781 83.925781 120.175781 83.914062 L 120.183594 83.898438 L 120.199219 83.878906 L 120.214844 83.855469 L 120.214844 83.839844 L 120.226562 83.824219 L 120.242188 83.804688 L 120.257812 83.789062 L 120.257812 83.773438 L 120.277344 83.746094 L 120.277344 83.730469 C 120.289062 83.726562 120.292969 83.722656 120.292969 83.710938 L 120.304688 83.699219 L 120.316406 83.683594 L 120.332031 83.660156 L 120.339844 83.644531 L 120.339844 83.632812 L 120.363281 83.605469 C 120.363281 83.601562 120.363281 83.597656 120.371094 83.589844 L 120.378906 83.574219 L 120.402344 83.535156 L 120.414062 83.519531 C 120.417969 83.511719 120.414062 83.503906 120.421875 83.496094 C 120.421875 83.492188 120.421875 83.488281 120.433594 83.488281 L 120.445312 83.460938 L 120.453125 83.449219 L 120.464844 83.417969 L 120.476562 83.414062 L 120.484375 83.394531 L 120.496094 83.382812 L 120.507812 83.355469 L 120.515625 83.347656 L 120.527344 83.316406 C 120.539062 83.308594 120.527344 83.304688 120.527344 83.304688 L 120.546875 83.277344 L 120.554688 83.269531 L 120.574219 83.242188 L 120.574219 83.238281 L 120.589844 83.207031 L 120.601562 83.195312 L 120.609375 83.164062 L 120.609375 83.160156 L 120.636719 83.132812 L 120.652344 83.101562 L 120.652344 83.097656 L 120.671875 83.058594 L 120.683594 83.054688 L 120.8125 82.8125 C 121.484375 81.59375 121.035156 80.011719 119.78125 79.3125 Z M 119.78125 79.3125 " fill-opacity="1" fill-rule="nonzero"/><path fill="#55acee" d="M 109.085938 83.378906 C 109.085938 83.71875 108.984375 84.058594 108.785156 84.394531 C 108.585938 84.730469 108.289062 85.054688 107.898438 85.371094 C 107.507812 85.6875 107.027344 85.984375 106.457031 86.269531 C 105.890625 86.554688 105.242188 86.816406 104.519531 87.058594 C 103.796875 87.300781 103.007812 87.515625 102.160156 87.707031 C 101.308594 87.894531 100.410156 88.054688 99.464844 88.1875 C 98.519531 88.316406 97.542969 88.417969 96.539062 88.484375 C 95.539062 88.550781 94.523438 88.582031 93.5 88.582031 C 92.476562 88.582031 91.464844 88.550781 90.460938 88.484375 C 89.457031 88.417969 88.484375 88.316406 87.539062 88.1875 C 86.589844 88.054688 85.695312 87.894531 84.84375 87.707031 C 83.992188 87.515625 83.203125 87.300781 82.480469 87.058594 C 81.757812 86.816406 81.113281 86.554688 80.542969 86.269531 C 79.976562 85.984375 79.496094 85.6875 79.101562 85.371094 C 78.710938 85.054688 78.417969 84.730469 78.214844 84.394531 C 78.015625 84.058594 77.917969 83.71875 77.917969 83.378906 C 77.917969 83.035156 78.015625 82.699219 78.214844 82.363281 C 78.417969 82.027344 78.710938 81.703125 79.101562 81.386719 C 79.496094 81.070312 79.976562 80.769531 80.542969 80.484375 C 81.113281 80.203125 81.757812 79.9375 82.480469 79.699219 C 83.203125 79.457031 83.992188 79.238281 84.84375 79.050781 C 85.695312 78.859375 86.589844 78.699219 87.539062 78.570312 C 88.484375 78.4375 89.457031 78.339844 90.460938 78.273438 C 91.464844 78.207031 92.476562 78.171875 93.5 78.171875 C 94.523438 78.171875 95.539062 78.207031 96.539062 78.273438 C 97.542969 78.339844 98.519531 78.4375 99.464844 78.570312 C 100.410156 78.699219 101.308594 78.859375 102.160156 79.050781 C 103.007812 79.238281 103.796875 79.457031 104.519531 79.699219 C 105.242188 79.9375 105.890625 80.203125 106.457031 80.484375 C 107.027344 80.769531 107.507812 81.070312 107.898438 81.386719 C 108.289062 81.703125 108.585938 82.027344 108.785156 82.363281 C 108.984375 82.699219 109.085938 83.035156 109.085938 83.378906 Z M 109.085938 83.378906 " fill-opacity="1" fill-rule="nonzero"/><path fill="#ffcc4d" d="M 103.890625 83.378906 C 103.890625 83.71875 103.839844 84.058594 103.738281 84.394531 C 103.640625 84.730469 103.492188 85.054688 103.296875 85.371094 C 103.101562 85.6875 102.859375 85.984375 102.578125 86.269531 C 102.292969 86.554688 101.96875 86.816406 101.609375 87.058594 C 101.246094 87.300781 100.851562 87.515625 100.425781 87.707031 C 100 87.894531 99.550781 88.054688 99.078125 88.1875 C 98.605469 88.316406 98.121094 88.417969 97.617188 88.484375 C 97.117188 88.550781 96.609375 88.582031 96.097656 88.582031 C 95.585938 88.582031 95.078125 88.550781 94.578125 88.484375 C 94.074219 88.417969 93.589844 88.316406 93.117188 88.1875 C 92.644531 88.054688 92.195312 87.894531 91.769531 87.707031 C 91.34375 87.515625 90.949219 87.300781 90.589844 87.058594 C 90.226562 86.816406 89.902344 86.554688 89.621094 86.269531 C 89.335938 85.984375 89.09375 85.6875 88.898438 85.371094 C 88.703125 85.054688 88.554688 84.730469 88.457031 84.394531 C 88.355469 84.058594 88.304688 83.71875 88.304688 83.378906 C 88.304688 83.035156 88.355469 82.699219 88.457031 82.363281 C 88.554688 82.027344 88.703125 81.703125 88.898438 81.386719 C 89.09375 81.070312 89.335938 80.769531 89.621094 80.484375 C 89.902344 80.203125 90.226562 79.9375 90.589844 79.699219 C 90.949219 79.457031 91.34375 79.238281 91.769531 79.050781 C 92.195312 78.859375 92.644531 78.699219 93.117188 78.570312 C 93.589844 78.4375 94.074219 78.339844 94.578125 78.273438 C 95.078125 78.207031 95.585938 78.171875 96.097656 78.171875 C 96.609375 78.171875 97.117188 78.207031 97.617188 78.273438 C 98.121094 78.339844 98.605469 78.4375 99.078125 78.570312 C 99.550781 78.699219 100 78.859375 100.425781 79.050781 C 100.851562 79.238281 101.246094 79.457031 101.609375 79.699219 C 101.96875 79.9375 102.292969 80.203125 102.578125 80.484375 C 102.859375 80.769531 103.101562 81.070312 103.296875 81.386719 C 103.492188 81.703125 103.640625 82.027344 103.738281 82.363281 C 103.839844 82.699219 103.890625 83.035156 103.890625 83.378906 Z M 103.890625 83.378906 " fill-opacity="1" fill-rule="nonzero"/><path fill="#5c913b" d="M 99.304688 84.804688 C 98.882812 84.804688 98.457031 84.699219 98.0625 84.488281 C 96.800781 83.800781 96.332031 82.21875 97.015625 80.957031 C 97.847656 79.425781 98.722656 78.039062 99.625 76.820312 C 98.902344 76.851562 98.15625 76.867188 97.390625 76.867188 C 95.957031 76.867188 94.648438 75.695312 94.648438 74.257812 C 94.648438 72.820312 95.660156 71.65625 97.101562 71.65625 L 97.527344 71.660156 C 99.0625 71.660156 100.644531 71.566406 102.054688 71.4375 C 102.875 71.347656 103.660156 71.683594 104.1875 72.25 C 104.257812 72.191406 104.332031 72.132812 104.410156 72.085938 C 104.929688 71.746094 105.410156 71.46875 105.863281 71.25 C 106.171875 71.011719 106.542969 70.839844 106.960938 70.761719 L 107.148438 70.722656 C 108.125 70.40625 108.808594 70.363281 109.085938 70.363281 C 109.910156 70.363281 110.683594 70.753906 111.171875 71.421875 C 111.660156 72.085938 111.804688 72.941406 111.5625 73.734375 C 111.136719 75.117188 110.183594 75.429688 108.519531 75.761719 C 108.207031 75.882812 107.78125 76.089844 107.28125 76.429688 C 106.304688 77.070312 105.039062 76.96875 104.171875 76.253906 C 104.882812 77.171875 104.914062 78.496094 104.160156 79.449219 C 103.277344 80.578125 102.410156 81.921875 101.582031 83.445312 C 101.117188 84.316406 100.222656 84.804688 99.304688 84.804688 Z M 91.925781 76.53125 C 91.816406 76.53125 91.699219 76.527344 91.582031 76.511719 C 89.640625 76.253906 87.796875 75.867188 86.097656 75.363281 C 84.722656 74.949219 83.9375 73.503906 84.347656 72.125 L 84.378906 72.019531 L 84.316406 72.140625 C 83.617188 73.394531 82.03125 73.847656 80.78125 73.140625 C 79.011719 72.148438 77.429688 70.957031 76.066406 69.59375 C 75.054688 68.578125 75.054688 66.929688 76.066406 65.914062 C 77.082031 64.898438 78.726562 64.898438 79.742188 65.914062 C 80.765625 66.941406 81.964844 67.839844 83.3125 68.59375 C 84.425781 69.21875 84.902344 70.542969 84.503906 71.703125 C 85.050781 70.59375 86.34375 70.003906 87.570312 70.371094 C 89.003906 70.796875 90.578125 71.125 92.242188 71.347656 C 93.667969 71.535156 94.667969 72.84375 94.484375 74.269531 C 94.332031 75.582031 93.210938 76.53125 91.925781 76.53125 Z M 79.191406 64.359375 C 76.976562 64.359375 74.113281 63.5 72.378906 61.449219 C 69.71875 58.304688 68.15625 54.269531 68.394531 51.179688 C 68.457031 50.351562 67.652344 49.683594 66.863281 49.476562 C 66.410156 49.355469 65.617188 49.285156 65.242188 50.089844 C 64.9375 50.746094 64.167969 51.023438 63.519531 50.726562 C 62.867188 50.421875 62.582031 49.648438 62.882812 48.996094 C 63.695312 47.234375 65.511719 46.445312 67.519531 46.957031 C 69.378906 47.441406 71.160156 49.117188 70.984375 51.382812 C 70.796875 53.785156 72.15625 57.152344 74.359375 59.761719 C 75.515625 61.136719 77.53125 61.691406 78.902344 61.746094 C 80.019531 61.800781 80.585938 61.546875 80.707031 61.4375 C 80.414062 60.746094 76.566406 58.714844 74.925781 57.851562 C 73.527344 57.117188 73.113281 56.109375 73.007812 55.394531 C 72.660156 53.027344 75.085938 50.625 77.433594 48.316406 C 78.261719 47.5 79.042969 46.726562 79.46875 46.160156 C 79.953125 45.519531 79.875 45.09375 79.78125 44.828125 C 79.421875 43.855469 77.871094 42.890625 76 42.476562 C 74.269531 42.089844 73.101562 41.25 72.53125 39.980469 C 71.777344 38.3125 72.175781 36.125 73.746094 33.292969 C 74.09375 32.65625 74.890625 32.4375 75.511719 32.789062 C 76.140625 33.136719 76.363281 33.929688 76.015625 34.558594 C 74.535156 37.222656 74.679688 38.429688 74.898438 38.914062 C 75.117188 39.394531 75.671875 39.730469 76.5625 39.929688 C 78.757812 40.417969 81.402344 41.726562 82.214844 43.921875 C 82.675781 45.175781 82.441406 46.53125 81.546875 47.722656 C 81.007812 48.445312 80.15625 49.285156 79.257812 50.171875 C 77.917969 51.496094 75.417969 53.957031 75.578125 55.019531 C 75.609375 55.238281 75.898438 55.429688 76.136719 55.550781 C 80.035156 57.601562 82.628906 59.085938 83.160156 60.902344 C 83.34375 61.542969 83.265625 62.1875 82.941406 62.769531 C 82.4375 63.648438 81.386719 64.191406 79.902344 64.328125 C 79.679688 64.347656 79.433594 64.359375 79.191406 64.359375 Z M 79.191406 64.359375 " fill-opacity="1" fill-rule="nonzero"/><path fill="#ffcc4d" d="M 103.890625 67.761719 C 103.890625 68.105469 103.871094 68.441406 103.839844 68.777344 C 103.804688 69.113281 103.757812 69.4375 103.691406 69.753906 C 103.625 70.070312 103.546875 70.371094 103.453125 70.652344 C 103.355469 70.9375 103.25 71.203125 103.128906 71.441406 C 103.007812 71.683594 102.878906 71.902344 102.734375 72.089844 C 102.59375 72.28125 102.445312 72.441406 102.285156 72.570312 C 102.128906 72.703125 101.964844 72.800781 101.800781 72.867188 C 101.632812 72.933594 101.464844 72.96875 101.292969 72.96875 C 101.121094 72.96875 100.953125 72.933594 100.785156 72.867188 C 100.617188 72.800781 100.457031 72.703125 100.296875 72.570312 C 100.140625 72.441406 99.992188 72.28125 99.847656 72.089844 C 99.707031 71.902344 99.578125 71.683594 99.457031 71.441406 C 99.335938 71.203125 99.226562 70.9375 99.132812 70.652344 C 99.039062 70.371094 98.957031 70.070312 98.894531 69.753906 C 98.828125 69.4375 98.777344 69.113281 98.746094 68.777344 C 98.710938 68.441406 98.695312 68.105469 98.695312 67.761719 C 98.695312 67.421875 98.710938 67.082031 98.746094 66.746094 C 98.777344 66.410156 98.828125 66.085938 98.894531 65.769531 C 98.957031 65.453125 99.039062 65.15625 99.132812 64.871094 C 99.226562 64.585938 99.335938 64.324219 99.457031 64.082031 C 99.578125 63.839844 99.707031 63.625 99.847656 63.433594 C 99.992188 63.246094 100.140625 63.085938 100.296875 62.953125 C 100.457031 62.824219 100.617188 62.722656 100.785156 62.65625 C 100.953125 62.589844 101.121094 62.558594 101.292969 62.558594 C 101.464844 62.558594 101.632812 62.589844 101.800781 62.65625 C 101.964844 62.722656 102.128906 62.824219 102.285156 62.953125 C 102.445312 63.085938 102.59375 63.246094 102.734375 63.433594 C 102.878906 63.625 103.007812 63.839844 103.128906 64.082031 C 103.25 64.324219 103.355469 64.585938 103.453125 64.871094 C 103.546875 65.15625 103.625 65.453125 103.691406 65.769531 C 103.757812 66.085938 103.804688 66.410156 103.839844 66.746094 C 103.871094 67.082031 103.890625 67.421875 103.890625 67.761719 Z M 103.890625 67.761719 " fill-opacity="1" fill-rule="nonzero"/><path fill="#ffcc4d" d="M 89.824219 63.535156 C 89.824219 65.035156 88.03125 66.246094 85.816406 66.246094 C 83.609375 66.246094 81.8125 65.035156 81.8125 63.535156 C 81.8125 62.035156 83.605469 60.824219 85.816406 60.824219 C 88.027344 60.824219 89.824219 62.035156 89.824219 63.535156 Z M 83.65625 39.449219 C 83.917969 40.554688 82.476562 41.84375 80.441406 42.328125 C 78.40625 42.8125 76.546875 42.308594 76.28125 41.203125 C 76.019531 40.097656 77.460938 38.804688 79.492188 38.320312 C 81.53125 37.84375 83.398438 38.34375 83.65625 39.449219 Z M 83.65625 39.449219 " fill-opacity="1" fill-rule="nonzero"/><path fill="#c1694f" d="M 117.046875 67.527344 C 117.515625 67.890625 118.308594 63.734375 118.191406 62.4375 C 118.191406 62.347656 118.039062 59.59375 118.621094 57.628906 C 118.980469 56.960938 119 51.992188 118.449219 50.683594 C 118.886719 50.648438 119.410156 50.507812 119.472656 49.976562 C 117.457031 50.71875 116.984375 45.722656 115.046875 42.851562 C 113.167969 39.972656 110.835938 38.296875 108.398438 36.546875 C 108.582031 36.058594 108.871094 35.597656 109.238281 35.140625 C 106.253906 36.640625 101.597656 31.210938 94.722656 31.617188 C 93.179688 31.769531 92.445312 31.863281 92.050781 32.808594 C 90.769531 32.914062 89.464844 33.203125 89.464844 34.894531 C 89.464844 35.300781 89.832031 36.042969 90.652344 36.046875 C 91.777344 36.375 92.691406 36.121094 93.453125 37.691406 L 93.65625 39.316406 C 93.65625 39.316406 92.652344 38.03125 92.101562 37.828125 L 92.441406 37.132812 C 91.921875 36.832031 91.003906 37.078125 91.003906 37.078125 C 91.003906 37.078125 89.003906 36.140625 87.398438 36.390625 L 87.085938 35.089844 C 86.804688 35.890625 86.175781 35.847656 86.089844 36.605469 C 85.910156 36.0625 85.679688 35.390625 85.511719 34.847656 C 84.945312 35.621094 85.113281 36.453125 84.910156 37.253906 C 84.691406 37.441406 84.242188 37.445312 84.128906 36.929688 C 84.074219 36.296875 83.996094 36.238281 83.996094 35.484375 C 83.589844 36.199219 83.101562 36.546875 82.941406 37.769531 L 82.507812 36.417969 C 82.523438 38.015625 81.152344 38.964844 79.855469 40.097656 C 79.484375 40.773438 79.910156 40.777344 79.941406 41.125 L 80.628906 41.46875 L 81.859375 41.382812 C 82.0625 41.636719 81.894531 41.65625 82.429688 41.820312 C 83.863281 42.21875 85.652344 40.496094 87.054688 43.210938 C 86.410156 43.75 85.761719 45.015625 85.96875 45.253906 C 86.226562 45.253906 85.449219 45.617188 86.5 45.285156 C 85.40625 46.347656 84.671875 47.746094 84.671875 47.832031 C 84.546875 48.132812 85.105469 47.789062 84.992188 48.335938 L 85.25 48.304688 C 82.765625 51 85.167969 53.902344 84.902344 55.457031 C 85.320312 56.128906 85.371094 55.441406 85.890625 55.375 C 86.328125 57.289062 87.585938 58.449219 88.351562 59.964844 L 86.730469 59.980469 C 86.769531 60.699219 87.417969 61.378906 87.933594 62.011719 L 86.847656 62.355469 C 86.074219 62.75 85.5625 63.171875 85.019531 63.78125 C 84.660156 64.65625 86.746094 64.863281 87.753906 65.019531 L 87.71875 66.074219 C 89.292969 66.226562 91.109375 65.757812 91.109375 65.667969 L 91.507812 65.363281 L 92.394531 65.851562 C 92.691406 65.851562 93.152344 64.664062 92.941406 63.753906 C 93.511719 64.4375 94.050781 65.535156 94.621094 66.222656 L 95.15625 66.148438 C 95.644531 66.925781 96.316406 67.695312 96.804688 68.46875 L 97.351562 68.679688 C 97.667969 68.570312 97.9375 68.53125 98.109375 67.90625 L 98.359375 68.34375 L 99.21875 67.75 L 99.824219 67.632812 L 100.273438 68.371094 C 100.539062 68.273438 100.800781 67.695312 100.816406 67.082031 C 101.085938 67.617188 101.15625 67.574219 101.355469 67.714844 L 101.753906 66.871094 L 103.910156 68.890625 L 105.542969 68.984375 C 106.125 69.382812 107.71875 69.632812 107.988281 68.992188 C 109.296875 69.554688 110.839844 68.917969 110.761719 68.292969 C 111.96875 68.773438 113.820312 68.449219 113.820312 68.371094 C 114.042969 68.34375 114.617188 67.78125 114.074219 67.363281 C 110.09375 64.582031 104.1875 59.980469 101.90625 58.871094 C 101.90625 58.050781 101.289062 55.085938 100.621094 54.277344 L 101.164062 53.371094 C 102.714844 54.820312 103.277344 54.679688 104.101562 54.910156 C 104.984375 55.613281 105.292969 56.679688 106.175781 57.652344 L 106.964844 57.800781 C 106.417969 56.410156 105.738281 55.0625 104.085938 53.253906 C 104.9375 53.683594 106.351562 54.820312 107.296875 55.648438 C 107.921875 56.695312 108.101562 57.527344 108.671875 58.839844 C 109.089844 59.105469 109.515625 60.078125 109.457031 59.273438 C 109.359375 57.757812 108.292969 55.359375 108.292969 55.1875 C 109.988281 56.53125 109.96875 58.621094 110.480469 59.898438 C 110.914062 60.542969 111.128906 61.40625 111.316406 61.203125 L 110.820312 57.269531 L 110.527344 55.828125 C 111.78125 56.550781 112.226562 59.308594 112.8125 62.621094 C 112.8125 63.144531 113.027344 63.722656 112.996094 64.0625 C 113.265625 64.394531 113.570312 65.316406 113.566406 64.769531 C 113.566406 64.769531 113.566406 59.386719 113.199219 58.152344 C 113.105469 57.492188 113.355469 56.421875 113.355469 56.421875 C 113.8125 58.652344 114.300781 61.074219 114.761719 63.300781 L 114.761719 64.941406 L 115.449219 65.632812 C 115.578125 64.28125 115.734375 62.9375 115.867188 61.59375 L 115.355469 56.777344 L 115.355469 55.40625 C 115.34375 54.921875 115.796875 55.007812 116.082031 55.5625 C 116.148438 56.742188 116.148438 57.664062 116.195312 58.839844 C 116.398438 60.183594 116.539062 61.167969 116.636719 62.878906 C 116.695312 64.265625 116.757812 67.585938 117.046875 67.527344 Z M 117.046875 67.527344 " fill-opacity="1" fill-rule="nonzero"/></svg>