<svg xmlns="http://www.w3.org/2000/svg" xmlns:xlink="http://www.w3.org/1999/xlink" width="250" zoomAndPan="magnify" viewBox="0 0 187.5 135.749996" height="181" preserveAspectRatio="xMidYMid meet" version="1.0"><defs><clipPath id="1d6c7ab43a"><path d="M 124 0.199219 L 187 0.199219 L 187 135.445312 L 124 135.445312 Z M 124 0.199219 " clip-rule="nonzero"/></clipPath><clipPath id="e1b8238353"><path d="M 0 0.199219 L 63 0.199219 L 63 135.445312 L 0 135.445312 Z M 0 0.199219 " clip-rule="nonzero"/></clipPath><clipPath id="5aa3979353"><path d="M 62 0.199219 L 125 0.199219 L 125 135.445312 L 62 135.445312 Z M 62 0.199219 " clip-rule="nonzero"/></clipPath></defs><g clip-path="url(#1d6c7ab43a)"><path fill="#ed2939" d="M 187 114.742188 C 187 126.238281 177.699219 135.5625 166.222656 135.5625 L 124.667969 135.5625 L 124.667969 0.230469 L 166.222656 0.230469 C 177.699219 0.230469 187 9.550781 187 21.050781 Z M 187 114.742188 " fill-opacity="1" fill-rule="nonzero"/></g><g clip-path="url(#e1b8238353)"><path fill="#002495" d="M 20.777344 0.230469 C 9.304688 0.230469 0 9.550781 0 21.050781 L 0 114.742188 C 0 126.238281 9.304688 135.5625 20.777344 135.5625 L 62.332031 135.5625 L 62.332031 0.230469 Z M 20.777344 0.230469 " fill-opacity="1" fill-rule="nonzero"/></g><g clip-path="url(#5aa3979353)"><path fill="#eeeeee" d="M 62.332031 0.230469 L 124.667969 0.230469 L 124.667969 135.5625 L 62.332031 135.5625 Z M 62.332031 0.230469 " fill-opacity="1" fill-rule="nonzero"/></g></svg>